<svg width="309" height="202" viewBox="0 0 309 202" fill="none" xmlns="http://www.w3.org/2000/svg">
<path d="M115.396 52.1383C114.723 51.4618 113.923 50.9247 113.042 50.5577C112.162 50.1908 111.217 50.0013 110.263 50C109.309 49.9987 108.364 50.1857 107.482 50.5502C106.6 50.9148 105.799 51.4497 105.124 52.1244C104.45 52.7991 103.915 53.6003 103.55 54.482C103.186 55.3638 102.999 56.3088 103 57.2629C103.001 58.2171 103.191 59.1616 103.558 60.0424C103.925 60.9231 104.462 61.7228 105.138 62.3957L115.396 72.6531L125.653 62.3957C127.007 61.0343 127.767 59.1913 127.764 57.2709C127.762 55.3505 126.998 53.5094 125.64 52.1515C124.282 50.7936 122.441 50.0296 120.52 50.0271C118.6 50.0246 116.757 50.7838 115.396 52.1383Z" fill="#FF6584"/>
<path d="M204.396 41.1383C203.723 40.4618 202.923 39.9247 202.042 39.5577C201.162 39.1908 200.217 39.0013 199.263 39C198.309 38.9987 197.364 39.1857 196.482 39.5502C195.6 39.9148 194.799 40.4497 194.124 41.1244C193.45 41.7991 192.915 42.6003 192.55 43.482C192.186 44.3638 191.999 45.3088 192 46.2629C192.001 47.2171 192.191 48.1616 192.558 49.0424C192.925 49.9231 193.462 50.7229 194.138 51.3957L204.396 61.6532L214.653 51.3957C216.007 50.0343 216.767 48.1913 216.764 46.2709C216.762 44.3505 215.998 42.5094 214.64 41.1515C213.282 39.7936 211.441 39.0296 209.52 39.0271C207.6 39.0246 205.757 39.7838 204.396 41.1383Z" fill="#FF6584"/>
<path d="M146.186 3.12402C145.197 2.13405 144.023 1.34861 142.731 0.812576C141.438 0.276543 140.053 0.000424881 138.654 4.8996e-07C137.254 -0.000423901 135.869 0.274853 134.576 0.810102C133.283 1.34535 132.109 2.13008 131.119 3.11945C130.13 4.10883 129.345 5.28345 128.81 6.57621C128.275 7.86897 128 9.25453 128 10.6537C128 12.0529 128.277 13.4383 128.813 14.7307C129.349 16.0231 130.134 17.1973 131.124 18.1861L146.186 33.2481L161.248 18.1861C162.238 17.1973 163.023 16.0231 163.559 14.7307C164.095 13.4383 164.371 12.0529 164.372 10.6537C164.372 9.25453 164.097 7.86897 163.562 6.57621C163.026 5.28345 162.242 4.10883 161.252 3.11945C160.263 2.13008 159.088 1.34535 157.796 0.810102C156.503 0.274853 155.117 -0.000423901 153.718 4.8996e-07C152.319 0.000424881 150.934 0.276543 149.641 0.812576C148.349 1.34861 147.175 2.13405 146.186 3.12402Z" fill="#FF6584"/>
<path d="M214.566 104.91C214.566 104.91 202.447 102.265 203.981 107.886C205.515 113.507 215.64 109.87 215.64 109.87L214.566 104.91Z" fill="#FFB8B8"/>
<path d="M241.839 76.7958C241.993 76.6545 242.182 76.5575 242.386 76.5152C242.589 76.4728 242.801 76.4865 242.997 76.555C243.194 76.6234 243.369 76.744 243.503 76.9041C243.638 77.0642 243.728 77.258 243.763 77.4651L244.185 79.9431C244.185 79.9431 246.095 89.8548 244.46 96.1508C242.824 102.447 241.664 110.74 237.244 111.624C233.462 112.38 219.083 111.183 215.012 110.821C214.719 110.795 214.447 110.658 214.25 110.436C214.054 110.215 213.949 109.926 213.955 109.629L214.031 106.013C214.037 105.728 214.146 105.455 214.337 105.245C214.528 105.035 214.788 104.903 215.069 104.872L231.532 103.099C231.789 103.072 232.03 102.959 232.216 102.777C232.401 102.596 232.522 102.357 232.558 102.099C232.949 99.2703 234.216 90.5017 235.473 85.8915C236.49 82.1662 239.828 78.6489 241.839 76.7958Z" fill="#575A89"/>
<path d="M308.297 196.104H194.581V196.946H308.297V196.104Z" fill="#3F3D56"/>
<path d="M230.802 181.784V189.272L235.35 190.207L238.383 188.803L238.046 182.876L230.802 181.784Z" fill="#FFB8B8"/>
<path d="M256.072 181.784V189.272L260.115 190.207L262.811 188.803L262.511 182.876L256.072 181.784Z" fill="#FFB8B8"/>
<path d="M239.224 120.293C239.224 120.293 233.474 131.713 233.633 140.629C233.73 146.012 233.463 151.394 232.835 156.742L229.96 183.493L239.224 183.962L243.537 155.178L251.843 132.964L255.037 159.402L255.836 185.996H263.823C263.823 185.996 267.497 160.81 265.42 155.178C265.42 155.178 270.212 123.578 266.378 122.014C262.545 120.449 239.224 120.293 239.224 120.293Z" fill="#2F2E41"/>
<path d="M233.822 187.076C233.822 187.076 232.269 181.379 230.094 184.304C227.92 187.229 221.707 192.156 221.707 192.156C221.707 192.156 212.387 197.083 220.93 198.315C229.473 199.547 230.405 196.776 230.405 196.776C230.405 196.776 231.803 196.006 233.046 196.468C234.288 196.93 239.725 196.776 240.035 194.928C240.346 193.08 238.327 182.918 237.705 184.766C237.084 186.614 233.822 187.076 233.822 187.076Z" fill="#2F2E41"/>
<path d="M262.435 186.985C262.435 186.985 262.435 185.314 259.573 185.162C256.712 185.01 256.26 186.985 256.26 186.985C256.26 186.985 255.507 187.745 255.356 190.025C255.205 192.305 255.356 198.232 255.356 198.232C255.356 198.232 254 202.791 260.176 201.88C266.352 200.968 264.092 196.256 264.092 196.256L262.435 186.985Z" fill="#2F2E41"/>
<path d="M251.465 62.1713L250.704 70.6706L249.333 73.8578L252.987 79.0181L261.969 70.6706C261.969 70.6706 260.294 66.1174 261.36 63.5372L251.465 62.1713Z" fill="#FFB8B8"/>
<path d="M272.077 76.953L272.005 77.7305L269.256 107.232C269.256 107.232 269.148 108.605 268.947 110.434C268.609 113.528 268.007 117.93 267.218 119.218C265.965 121.268 266.905 123.003 266.905 123.003C259.696 127.261 238.383 121.111 238.383 121.111L243.241 101.555C243.241 101.555 238.853 81.2111 239.323 79.3186C239.793 77.4261 249.666 70.6448 249.666 70.6448L249.958 71.4333C254.166 77.1107 258.442 72.2219 259.696 71.1179L262.204 68.91L272.077 76.953Z" fill="#575A89"/>
<path d="M240.068 130.764C225.068 132.79 210.759 133.532 197.518 132.284C192.816 131.81 188.153 131.012 183.561 129.898C175.142 127.914 164.807 127.914 153.453 128.97C146.55 129.582 139.745 131.019 133.187 133.25C124.388 136.283 114.748 136.02 104.529 133.481C100.335 132.394 96.2927 130.792 92.4959 128.711C85.0245 124.713 76.1821 126.16 66.5451 130.764V95.0165C75.5423 91.1149 84.3072 90.4851 92.7937 93.7741C95.8875 95.0044 99.0863 95.9545 102.351 96.6131C114.146 98.9084 126.32 98.361 137.859 95.0165C153.462 89.7523 169.783 91.3887 186.312 95.0165C204.727 98.8894 222.675 99.1178 240.068 95.0165V130.764Z" fill="#3F3D56"/>
<path d="M113.716 196.104H0V196.946H113.716V196.104Z" fill="#3F3D56"/>
<path d="M48.4949 129.607L53.6935 153.519L37.9054 188.717L47.1472 192.734L64.8604 152.371L53.5369 116.924L46.7982 118.645L48.4949 129.607Z" fill="#2F2E41"/>
<path d="M43.8018 123.066C43.8018 123.066 45.7333 126.534 49.9826 129.423C54.2318 132.313 63.1167 151.386 63.1167 151.386L53.4593 189.916L66.7865 193.577L74.1262 148.303L59.0606 114.396L43.8018 123.066Z" fill="#2F2E41"/>
<path d="M39.2234 187.68C39.2234 187.68 37.3255 189.752 38.0847 191.259C38.8438 192.766 39.2234 196.721 39.2234 196.721H40.9316V192.201L46.4355 197.286C46.4355 197.286 59.1517 198.416 58.9619 197.286C58.7721 196.156 51.3702 193.519 51.3702 193.519L47.7641 188.057L39.2234 187.68Z" fill="#2F2E41"/>
<path d="M56.0703 188.523C56.0703 188.523 54.1724 190.595 54.9315 192.101C55.6907 193.608 56.0703 197.563 56.0703 197.563H57.7784V193.043L63.2824 198.129C63.2824 198.129 75.9985 199.259 75.8087 198.129C75.6189 196.998 68.217 194.362 68.217 194.362L64.611 188.899L56.0703 188.523Z" fill="#2F2E41"/>
<path d="M51.3829 70.5947C55.5698 70.5947 58.964 67.3891 58.964 63.4348C58.964 59.4805 55.5698 56.2749 51.3829 56.2749C47.196 56.2749 43.8018 59.4805 43.8018 63.4348C43.8018 67.3891 47.196 70.5947 51.3829 70.5947Z" fill="#A0616A"/>
<path d="M45.5303 63.856C45.5303 63.856 44.9723 71.2209 41.4389 73.9343C37.9054 76.6477 37.9054 78.9734 37.9054 78.9734L52.2252 85.7569L48.8777 78.3919C48.8777 78.3919 47.9479 78.0043 49.4357 76.0662C50.9234 74.1281 52.2252 69.4765 52.2252 69.4765L45.5303 63.856Z" fill="#A0616A"/>
<path d="M60.6487 115.349C56.6888 118.849 52.101 121.545 47.1352 123.29L43.6809 124.505C43.6809 124.505 36.3765 115.53 40.065 108.459C40.8227 106.964 41.9064 105.663 43.2339 104.655L43.1578 104.318L41.3059 96.1387L41.1403 95.4065L35.6209 94.0577C35.6209 94.0577 35.6037 94.0635 35.5714 94.0712C35.1584 94.181 32.3587 94.7013 34.4789 88.0846C35.8894 83.6818 36.9121 79.4898 37.488 76.9275C37.5678 76.5696 37.7182 76.2318 37.9302 75.9344C38.1423 75.6369 38.4116 75.386 38.7219 75.1966C39.0323 75.0073 39.3773 74.8835 39.7361 74.8326C40.0949 74.7818 40.4602 74.805 40.81 74.9008C42.5774 75.3914 44.7729 76.3232 46.0888 78.0652C48.563 81.3408 49.0628 77.9203 49.0628 77.9203C49.0628 77.9203 55.9857 85.7724 55.6051 89.2407C55.5396 90.1712 55.5677 91.106 55.6888 92.0307V92.0346C55.7345 92.4469 55.7897 92.8766 55.8525 93.3159C56.3245 96.5606 57.2381 100.331 57.573 101.657C57.5978 101.751 57.6187 101.834 57.6358 101.904C57.6758 102.064 57.6986 102.15 57.6986 102.15L60.6487 115.349Z" fill="#575A89"/>
<path opacity="0.2" d="M50.5406 105.796L48.9791 111.027C48.9791 111.027 42.9911 109.512 39.4838 108.652C40.2608 107.149 41.3721 105.841 42.7335 104.828L42.6554 104.489L40.7563 96.2643L40.5865 95.5281L34.9264 94.1719C34.9264 94.1719 34.9088 94.1777 34.8756 94.1855L34.536 91.6533C34.536 91.6533 44.2949 92.2345 44.8804 94.5594C45.4659 96.8843 44.2949 99.2091 43.7094 99.5966C43.1238 99.9841 43.7094 99.5966 44.8804 100.178C46.0515 100.759 44.4901 100.178 43.7094 101.34C42.9286 102.503 43.9045 101.534 44.0997 102.115C44.2949 102.696 44.0997 101.921 43.9045 102.89C43.7094 103.859 44.6852 103.084 44.8804 103.084C45.0756 103.084 50.5406 105.796 50.5406 105.796Z" fill="black"/>
<path d="M48.5946 104.623L61.1851 108.025C61.1851 108.025 67.9646 100.821 71.6449 103.022C75.3252 105.223 65.0591 110.227 65.0591 110.227L61.3788 111.027L48.0135 109.426L48.5946 104.623Z" fill="#A0616A"/>
<path d="M34.536 90.811L35.3167 96.6232C35.3167 96.6232 34.7312 96.6232 35.3167 97.9794C35.9023 99.3355 35.3167 102.048 35.3167 102.048C35.3167 102.048 34.1457 102.242 35.1216 102.823C36.0975 103.404 37.0733 104.954 36.683 105.535C36.2926 106.116 35.5119 106.891 37.2685 107.279C39.0251 107.666 48.9791 110.185 48.9791 110.185L50.5406 104.954C50.5406 104.954 45.0756 102.242 44.8804 102.242C44.6852 102.242 43.7094 103.017 43.9045 102.048C44.0997 101.079 44.2949 101.854 44.0997 101.273C43.9045 100.692 42.9286 101.66 43.7094 100.498C44.4901 99.3355 46.0515 99.9167 44.8804 99.3355C43.7094 98.7543 43.1238 99.1418 43.7094 98.7543C44.2949 98.3668 45.4659 96.042 44.8804 93.7171C44.2949 91.3922 34.536 90.811 34.536 90.811Z" fill="#575A89"/>
<path d="M49.6739 76.4652L50.248 75.5345C50.5171 75.0983 50.6052 74.571 50.493 74.0685C50.3807 73.5661 50.0772 73.1297 49.6494 72.8554L45.275 70.0506C44.8472 69.7762 44.3299 69.6864 43.8371 69.8009C43.3443 69.9153 42.9163 70.2247 42.6472 70.6609L42.073 71.5916C41.7497 71.5899 41.4312 71.6722 41.1478 71.8309C40.8643 71.9895 40.6252 72.2192 40.453 72.4982L39.0403 74.7882C38.7712 75.2244 38.6831 75.7517 38.7954 76.2542C38.9076 76.7566 39.2111 77.193 39.6389 77.4673L45.5335 81.2469C45.9614 81.5212 46.4786 81.611 46.9714 81.4966C47.4642 81.3821 47.8923 81.0728 48.1614 80.6366L49.574 78.3466C49.7461 78.0675 49.8456 77.7483 49.8631 77.4191C49.8806 77.0899 49.8154 76.7616 49.6739 76.4652Z" fill="#575A89"/>
<path d="M50.8178 63.2749C51.2218 62.6984 51.0448 61.8974 51.3339 61.2584C51.788 60.255 53.1269 60.0491 54.2478 59.983C54.9912 59.9076 55.7414 59.9274 56.4796 60.0417C56.8056 60.1026 57.1126 60.2367 57.3765 60.4333C57.6404 60.6299 57.854 60.8838 58.0003 61.1748C58.1578 61.503 58.1412 60.486 58.0675 59.1792C57.9931 57.8457 57.4874 56.5696 56.6231 55.5349C55.7589 54.5002 54.5807 53.7603 53.2584 53.4218C53.2427 53.4178 53.2271 53.4138 53.2117 53.41C51.8573 53.0708 50.4586 52.8116 49.0665 52.9381C47.6743 53.0646 46.2761 53.6173 45.3832 54.6685C44.9751 55.1489 44.6808 55.7198 44.2276 56.16C43.4314 56.9333 42.273 57.1942 41.2063 57.5365C39.9844 57.8898 38.8531 58.4923 37.887 59.3042C36.9177 60.1285 36.3199 61.2929 36.2234 62.5449C36.1652 63.9908 37.07 65.5059 38.5805 65.827C38.8433 65.8782 39.09 65.9892 39.3006 66.1511C40.7225 67.283 39.041 68.393 39.0218 69.6291C39.0058 70.6605 40.1641 71.3603 41.2172 71.4334C42.2025 71.474 43.1716 71.1786 43.9584 70.5977C44.7451 70.0168 45.3006 69.1867 45.5296 68.2496C45.7095 67.4071 45.6083 66.535 45.5261 65.6782C45.432 64.6973 47.6449 62.4454 46.179 64.0997C45.8931 64.414 45.6959 64.7955 45.6068 65.2068C45.3363 66.5497 46.5811 67.0331 47.3547 67.799C47.7791 68.232 48.0708 68.7724 48.1968 69.3592C48.3228 69.9459 48.2779 70.5553 48.0673 71.1184C48.7348 70.5557 49.1803 69.7831 49.327 68.9338C49.4737 68.0845 49.3123 67.2118 48.8707 66.4663C48.6251 66.078 48.3046 65.7376 48.0723 65.3415C47.7099 64.7233 47.6386 63.3958 48.6944 63.4572C49.4481 63.5011 50.2164 64.1331 50.8178 63.2749Z" fill="#2F2E41"/>
<path d="M256.493 66.383C260.913 66.383 264.496 62.8003 264.496 58.3808C264.496 53.9613 260.913 50.3785 256.493 50.3785C252.074 50.3785 248.491 53.9613 248.491 58.3808C248.491 62.8003 252.074 66.383 256.493 66.383Z" fill="#FFB8B8"/>
<path opacity="0.2" d="M272.077 78.244L269.293 107.149C269.293 107.149 269.184 108.494 268.98 110.286C263.072 111.661 246.758 112.712 246.758 112.712L245.964 107.149L264.056 102.359C264.056 102.359 261.834 90.307 264.373 85.3625C264.995 84.1597 265.551 82.9257 266.039 81.6657C266.484 80.5037 267.329 79.5278 268.43 78.904C269.531 78.2801 270.819 78.0469 272.077 78.244V78.244Z" fill="black"/>
<path d="M247.417 106.595C247.417 106.595 235.299 103.95 236.833 109.571C238.367 115.192 248.491 111.555 248.491 111.555L247.417 106.595Z" fill="#FFB8B8"/>
<path d="M267.495 76.4911L272.476 77.2669C272.476 77.2669 276.011 86.577 275.368 92.9389C274.725 99.3008 274.886 107.525 270.548 109.076C266.209 110.628 246.767 111.869 246.767 111.869L245.964 106.283L264.281 101.473C264.281 101.473 262.032 89.3701 264.603 84.4047C267.173 79.4393 267.495 76.4911 267.495 76.4911Z" fill="#575A89"/>
<path d="M249.792 50.0561L248.278 49.4279C248.278 49.4279 251.443 45.8162 255.847 46.1303L254.608 44.717C254.608 44.717 257.636 43.4607 260.388 46.7584C261.835 48.4919 263.509 50.5295 264.552 52.8249H266.173L265.497 54.369L267.865 55.9132L265.434 55.6358C265.579 56.4814 265.601 57.3447 265.5 58.1971C265.396 59.0497 264.976 59.827 264.33 60.365C264.33 60.365 262.452 56.3373 262.452 55.7092V57.2795C262.452 57.2795 260.938 55.8662 260.938 54.924L260.113 56.0232H254.608L255.434 54.61L252.269 55.0811L253.507 53.3537L248.607 60.4866C248.607 60.4866 245.801 52.4115 249.792 50.0561Z" fill="#2F2E41"/>
<path d="M153.306 143.036C169.589 143.036 182.788 129.837 182.788 113.554C182.788 97.2717 169.589 84.0721 153.306 84.0721C137.024 84.0721 123.824 97.2717 123.824 113.554C123.824 129.837 137.024 143.036 153.306 143.036Z" fill="#5D66D3"/>
<path d="M167.626 119.252C167.626 120.99 160.995 125.347 153.319 125.347C145.643 125.347 139.829 120.99 139.829 119.252C139.829 117.515 145.643 119.842 153.319 119.842C160.995 119.842 167.626 117.515 167.626 119.252Z" fill="#D0CDE1"/>
<path d="M163.836 108.5C165.464 108.5 166.784 106.992 166.784 105.131C166.784 103.27 165.464 101.761 163.836 101.761C162.207 101.761 160.887 103.27 160.887 105.131C160.887 106.992 162.207 108.5 163.836 108.5Z" fill="#3F3D56"/>
<path d="M142.777 108.5C144.405 108.5 145.725 106.992 145.725 105.131C145.725 103.27 144.405 101.761 142.777 101.761C141.149 101.761 139.829 103.27 139.829 105.131C139.829 106.992 141.149 108.5 142.777 108.5Z" fill="#3F3D56"/>
<path d="M144.883 105.131C145.813 105.131 146.568 104.377 146.568 103.446C146.568 102.516 145.813 101.761 144.883 101.761C143.953 101.761 143.198 102.516 143.198 103.446C143.198 104.377 143.953 105.131 144.883 105.131Z" fill="#D0CDE1"/>
<path d="M160.887 105.131C161.818 105.131 162.572 104.377 162.572 103.446C162.572 102.516 161.818 101.761 160.887 101.761C159.957 101.761 159.203 102.516 159.203 103.446C159.203 104.377 159.957 105.131 160.887 105.131Z" fill="#D0CDE1"/>
<path d="M154.149 85.7569C160.662 85.7569 165.941 80.6657 165.941 74.3853C165.941 68.1049 160.662 63.0137 154.149 63.0137C147.636 63.0137 142.356 68.1049 142.356 74.3853C142.356 80.6657 147.636 85.7569 154.149 85.7569Z" fill="#5D66D3"/>
<path d="M150.052 75.709C154.007 78.186 154.149 85.6091 154.149 85.6091C154.149 85.6091 147.879 89.016 143.925 86.539C139.971 84.0619 139.829 76.6388 139.829 76.6388C139.829 76.6388 146.098 73.2319 150.052 75.709Z" fill="#3F3D56"/>
<path d="M164.76 85.086C161.092 88.0813 154.246 85.705 154.246 85.705C154.246 85.705 153.347 78.4724 157.014 75.4771C160.682 72.4818 167.529 74.8581 167.529 74.8581C167.529 74.8581 168.428 82.0907 164.76 85.086Z" fill="#3F3D56"/>
</svg>
