<svg width="24" height="24" viewBox="0 0 24 24" fill="none" xmlns="http://www.w3.org/2000/svg">
<path fill-rule="evenodd" clip-rule="evenodd" d="M0.333328 11.9999C0.333328 5.55992 5.56 0.333252 12 0.333252C18.44 0.333252 23.6667 5.55992 23.6667 11.9999C23.6667 18.4399 18.44 23.6666 12 23.6666C5.56 23.6666 0.333328 18.4399 0.333328 11.9999ZM13.1667 16.6666V18.9999H10.8333V16.6666H13.1667ZM12 21.3333C6.85499 21.3333 2.66666 17.1449 2.66666 11.9999C2.66666 6.85492 6.85499 2.66659 12 2.66659C17.145 2.66659 21.3333 6.85492 21.3333 11.9999C21.3333 17.1449 17.145 21.3333 12 21.3333ZM7.33333 9.66658C7.33333 7.08825 9.42166 4.99992 12 4.99992C14.5783 4.99992 16.6667 7.08825 16.6667 9.66658C16.6667 11.1633 15.745 11.9688 14.8476 12.753C13.9962 13.4971 13.1667 14.222 13.1667 15.4999H10.8333C10.8333 13.3751 11.9325 12.5326 12.8988 11.7919C13.6569 11.2108 14.3333 10.6923 14.3333 9.66658C14.3333 8.38325 13.2833 7.33325 12 7.33325C10.7167 7.33325 9.66666 8.38325 9.66666 9.66658H7.33333Z" fill="#5D66D3"/>
</svg>
