<svg width="215" height="125" viewBox="0 0 215 125" fill="none" xmlns="http://www.w3.org/2000/svg">
<path d="M215 90.0586H160.97V90.5095H215V90.0586Z" fill="#3F3D56"/>
<path d="M173.019 86.0078L174.588 94.3487L177.951 95.2504L177.054 85.3315L173.019 86.0078Z" fill="#A0616A"/>
<path d="M191.851 86.0078L193.42 94.3487L196.783 95.2504L195.886 85.3315L191.851 86.0078Z" fill="#A0616A"/>
<path d="M176.606 92.7708C176.606 92.7708 173.019 92.5454 173.019 93.6726C173.019 94.7997 171.225 98.632 171.225 98.632C171.225 98.632 169.88 103.141 173.467 102.69C177.054 102.239 179.296 98.1811 179.296 98.1811L178.399 93.898L176.606 92.7708Z" fill="#2F2E41"/>
<path d="M194.572 93.1865C194.572 93.1865 192.18 91.6398 192.351 92.6709C192.521 93.702 192.692 96.4517 193.889 96.6236C195.085 96.7954 198.674 97.8265 198.845 98.1702C199.016 98.5139 203.118 99.8888 203.118 97.6547C203.118 95.4206 200.554 93.7021 200.554 93.7021L197.649 91.468C197.649 91.468 195.769 91.2961 195.427 92.4991C195.085 93.702 194.572 93.1865 194.572 93.1865Z" fill="#2F2E41"/>
<path d="M171.843 38.5483C171.843 38.5483 168.032 32.9127 166.687 34.7161C165.342 36.5195 170.05 39.9009 170.05 39.9009L171.843 38.5483Z" fill="#A0616A"/>
<path d="M173.188 43.9586C172.964 43.7332 168.929 39.9009 168.929 39.9009L171.843 37.8721L175.206 41.2535L173.188 43.9586Z" fill="#575A89"/>
<path d="M173.749 26.4878C173.749 26.4878 170.834 26.7132 171.058 29.1929C171.283 31.6726 173.188 39.9008 173.188 39.9008L174.309 42.1551C174.309 42.1551 178.457 29.1929 173.749 26.4878Z" fill="#575A89"/>
<path d="M173.973 18.5978L174.78 21.303H184.891L185.183 18.3724L186.057 21.303H187.357L187.649 18.3724L188.523 21.303H189.891L188.605 18.1883C188.007 16.6993 187.553 15.1561 187.249 13.58C186.848 11.6228 185.788 9.86468 184.247 8.60223C182.707 7.33977 180.78 6.6503 178.793 6.65015C178.674 6.65015 178.555 6.65256 178.437 6.65738C172.77 6.88843 169.141 12.8558 171.315 18.1232L172.628 21.303H173.704L173.973 18.5978Z" fill="#2F2E41"/>
<path d="M173.861 42.155C173.861 42.155 166.911 48.0162 168.929 55.9062C170.946 63.7961 171.619 88.5933 171.619 88.5933L178.569 87.917V56.8079L188.209 75.293L189.778 88.5933L197.625 87.2407L194.038 71.0099L187.14 50.3205L186.416 44.3516L173.861 42.155Z" fill="#2F2E41"/>
<path d="M178.681 18.8232C181.281 18.8232 183.389 16.7037 183.389 14.0892C183.389 11.4747 181.281 9.35522 178.681 9.35522C176.081 9.35522 173.973 11.4747 173.973 14.0892C173.973 16.7037 176.081 18.8232 178.681 18.8232Z" fill="#A0616A"/>
<path d="M175.879 17.3579C175.879 17.3579 177.896 24.7971 176.775 25.6988C175.654 26.6005 184.622 22.7682 184.622 22.7682C184.622 22.7682 180.811 18.4851 181.259 16.6816L175.879 17.3579Z" fill="#A0616A"/>
<path d="M184.174 21.1903C184.174 21.1903 180.584 24.2949 177.11 24.546C177.11 24.546 172.516 27.0514 172.74 27.2769C172.964 27.5023 173.637 30.6583 173.637 30.6583C173.637 30.6583 174.758 32.3989 174.758 36.0686C174.758 36.5194 173.188 42.8314 173.188 42.8314L186.416 44.6349C186.416 44.6349 190.003 32.9126 190.227 28.8549C190.451 24.7972 191.796 20.514 189.778 20.2886C187.761 20.0632 184.174 21.1903 184.174 21.1903Z" fill="#575A89"/>
<path d="M189.33 21.1902C189.33 21.1902 190.899 19.8377 191.796 22.9936C192.693 26.1496 196.28 36.0685 195.383 38.0973C194.486 40.1262 189.106 49.1433 189.106 49.1433L186.416 47.3399L191.796 37.1956L188.657 29.9819L189.33 21.1902Z" fill="#575A89"/>
<path d="M187.537 47.1145C187.537 47.1145 180.587 51.3976 182.828 52.2993C185.07 53.2011 188.882 48.4671 188.882 48.4671L187.537 47.1145Z" fill="#A0616A"/>
<path d="M173.525 8.67896V13.4129H175.318L175.991 11.3841L176.159 13.4129H181.147L181.82 11.3841L181.988 13.4129H184.062V8.67896H173.525Z" fill="#2F2E41"/>
<path opacity="0.2" d="M173.525 30.9963C173.525 30.9963 173.076 35.5049 173.749 36.4066C174.421 37.3083 173.525 30.9963 173.525 30.9963Z" fill="black"/>
<path d="M134.739 109.671H39.682V110.122H134.739V109.671Z" fill="#3F3D56"/>
<path d="M128.957 75.4305L101.377 103.163C97.1609 107.402 91.4425 109.783 85.4799 109.783C79.5173 109.783 73.7988 107.402 69.5824 103.163C69.2103 102.788 68.8516 102.403 68.5108 102.006C67.9493 101.361 67.426 100.684 66.9437 99.9774C65.1748 97.4044 63.9648 94.4856 63.3925 91.4111C63.2647 90.7416 63.1683 90.0653 63.1033 89.3822C63.0338 88.6541 62.9987 87.9192 62.9979 87.1775C62.996 85.1035 63.2766 83.0389 63.8319 81.0414C64.0225 80.3538 64.2459 79.6775 64.5023 79.0125C65.6345 76.078 67.365 73.4142 69.5824 71.1924L81.6148 59.0937C82.2454 58.4596 83.1006 58.1034 83.9924 58.1034C84.8841 58.1034 85.7394 58.4596 86.3699 59.0937C87.0005 59.7277 87.3547 60.5877 87.3547 61.4844C87.3547 62.381 87.0005 63.241 86.3699 63.875L74.3376 75.9738C73.4284 76.8866 72.6327 77.907 71.9679 79.0125C70.4914 81.4767 69.7152 84.3007 69.7237 87.1775C69.7239 87.915 69.7741 88.6516 69.8739 89.3822C69.9675 90.0672 70.1068 90.745 70.2909 91.4111C71.0255 94.0816 72.4438 96.5117 74.4044 98.4587C76.365 100.406 78.7991 101.802 81.4639 102.507C84.1287 103.212 86.9309 103.203 89.5908 102.479C92.2506 101.755 94.6751 100.342 96.6222 98.3813L103.554 91.4111L115.885 79.0125L124.202 70.6491C126.817 68.0122 128.427 64.5346 128.75 60.8248C129.072 57.115 128.087 53.4093 125.967 50.3561C125.467 49.6201 125.277 48.7158 125.437 47.8395C125.597 46.9633 126.094 46.1858 126.821 45.6761C127.548 45.1663 128.445 44.9654 129.318 45.1169C130.191 45.2685 130.969 45.7603 131.484 46.4855C134.506 50.8421 135.908 56.1281 135.446 61.4192C134.984 66.7102 132.687 71.6697 128.957 75.4305Z" fill="#3F3D56"/>
<path d="M172.179 22.6059C172.179 22.7727 172.177 22.9395 172.173 23.1063C172.115 26.0573 171.48 28.968 170.305 31.6726C170.004 32.366 169.667 33.0432 169.296 33.7015C168.289 35.4927 167.044 37.1377 165.595 38.591L153.563 50.6898C152.932 51.3223 152.077 51.6772 151.186 51.6766C150.295 51.676 149.441 51.3198 148.811 50.6864C148.181 50.0529 147.827 49.1939 147.826 48.2981C147.825 47.4023 148.178 46.5428 148.807 45.9084L160.84 33.8097C160.876 33.7736 160.912 33.7375 160.945 33.7015C163.722 30.8678 165.329 27.0827 165.445 23.1063C165.451 22.9395 165.454 22.7727 165.454 22.6059C165.454 22.0919 165.43 21.5825 165.382 21.0775C165.031 17.42 163.425 13.9993 160.84 11.4021C160.6 11.1609 160.356 10.9287 160.102 10.7078C157.226 8.16517 153.527 6.76279 149.697 6.76279C145.868 6.76279 142.169 8.16517 139.293 10.7078C139.039 10.9287 138.795 11.1609 138.555 11.4021L110.975 39.1343C108.025 42.1083 106.368 46.1375 106.368 50.3381C106.368 54.5387 108.025 58.5679 110.975 61.5419C111.606 62.1759 111.96 63.0359 111.96 63.9325C111.96 64.8292 111.606 65.6892 110.975 66.3232C110.344 66.9573 109.489 67.3135 108.597 67.3135C107.706 67.3135 106.85 66.9573 106.22 66.3232C102.01 62.0804 99.6455 56.3316 99.6455 50.3381C99.6455 44.3446 102.01 38.5958 106.22 34.353L133.8 6.62077C136.199 4.21311 139.109 2.38155 142.311 1.26285C145.513 0.144154 148.925 -0.232785 152.292 0.160175C155.659 0.553134 158.895 1.70584 161.757 3.53224C164.619 5.35863 167.034 7.81153 168.821 10.7078C169.228 11.3636 169.6 12.0409 169.935 12.7366C171.196 15.3479 171.941 18.1807 172.128 21.0775C172.161 21.5847 172.179 22.0942 172.179 22.6059Z" fill="#3F3D56"/>
<path d="M28.0946 118.725C27.0676 122.543 23.5497 124.907 23.5497 124.907C23.5497 124.907 21.697 121.082 22.7241 117.265C23.7511 113.447 27.269 111.083 27.269 111.083C27.269 111.083 29.1217 114.908 28.0946 118.725Z" fill="#6C63FF"/>
<path d="M18.7514 118.725C19.7785 122.543 23.2963 124.907 23.2963 124.907C23.2963 124.907 25.149 121.082 24.122 117.265C23.0949 113.447 19.5771 111.083 19.5771 111.083C19.5771 111.083 17.7244 114.908 18.7514 118.725Z" fill="#6C63FF"/>
<path d="M20.2606 117.905C23.0789 120.663 23.4231 124.904 23.4231 124.904C23.4231 124.904 19.1981 124.672 16.3799 121.913C13.5616 119.155 13.2174 114.914 13.2174 114.914C13.2174 114.914 17.4424 115.146 20.2606 117.905Z" fill="#3F3D56"/>
<path d="M26.5855 117.905C23.7673 120.663 23.4231 124.904 23.4231 124.904C23.4231 124.904 27.6481 124.672 30.4663 121.913C33.2846 119.155 33.6288 114.914 33.6288 114.914C33.6288 114.914 29.4038 115.146 26.5855 117.905Z" fill="#3F3D56"/>
<path d="M153.123 22.2047C153.123 22.5075 153.093 22.8096 153.033 23.1064C152.826 24.1247 152.276 25.0398 151.475 25.697C150.675 26.3543 149.673 26.7132 148.639 26.7132C147.606 26.7132 146.604 26.3543 145.803 25.697C145.002 25.0398 144.452 24.1247 144.245 23.1064C144.11 22.4348 144.128 21.7413 144.297 21.0775C144.569 20.014 145.217 19.0868 146.121 18.47C147.024 17.8532 148.121 17.5892 149.204 17.7276C150.288 17.8659 151.283 18.3971 152.005 19.2214C152.727 20.0458 153.124 21.1065 153.123 22.2047Z" fill="#3F3D56"/>
<path d="M86.9865 90.5094C86.9864 90.8122 86.9564 91.1143 86.8968 91.4111C86.6899 92.4294 86.1395 93.3445 85.3388 94.0017C84.5381 94.659 83.5362 95.018 82.5026 95.018C81.469 95.018 80.4672 94.659 79.6665 94.0017C78.8658 93.3445 78.3154 92.4294 78.1085 91.4111C77.9735 90.7395 77.9911 90.046 78.16 89.3822C78.432 88.3187 79.0806 87.3915 79.9842 86.7747C80.8878 86.1579 81.9841 85.8939 83.0676 86.0323C84.151 86.1706 85.1469 86.7018 85.8685 87.5261C86.59 88.3505 86.9876 89.4112 86.9865 90.5094Z" fill="#3F3D56"/>
<path d="M51.7883 124.549H0V125H51.7883V124.549Z" fill="#3F3D56"/>
<path d="M129.735 10.7078H139.293C139.039 10.9287 138.795 11.1609 138.555 11.4021L137.228 12.7366H127.718L129.735 10.7078Z" fill="#6C63FF"/>
<path d="M169.935 12.7366H162.026C161.656 12.2696 161.26 11.8241 160.84 11.4021C160.6 11.1609 160.355 10.9287 160.102 10.7078H168.821C169.228 11.3636 169.6 12.0409 169.935 12.7366Z" fill="#6C63FF"/>
<path d="M119.423 21.0776H128.933L126.915 23.1065H117.405L119.423 21.0776Z" fill="#6C63FF"/>
<path d="M152.982 21.0776C153.151 21.7414 153.168 22.4349 153.033 23.1065H144.245C144.11 22.4349 144.128 21.7414 144.297 21.0776H152.982Z" fill="#6C63FF"/>
<path d="M172.179 22.606C172.179 22.7729 172.177 22.9397 172.173 23.1065H165.445C165.451 22.9397 165.454 22.7729 165.454 22.606C165.454 22.0921 165.43 21.5826 165.382 21.0776H172.128C172.161 21.5849 172.179 22.0943 172.179 22.606Z" fill="#6C63FF"/>
<path d="M108.886 31.6726H118.396L116.378 33.7015H106.868L108.886 31.6726Z" fill="#6C63FF"/>
<path d="M170.305 31.6726C170.004 32.366 169.667 33.0432 169.296 33.7015H160.945C161.561 33.0739 162.122 32.3952 162.624 31.6726H170.305Z" fill="#6C63FF"/>
<path d="M71.9678 79.0127C71.5781 79.6632 71.2356 80.3413 70.9433 81.0416H63.8319C64.0225 80.354 64.2459 79.6777 64.5022 79.0127H71.9678Z" fill="#6C63FF"/>
<path d="M125.395 79.0127L123.377 81.0416H113.867L115.885 79.0127H125.395Z" fill="#6C63FF"/>
<path d="M70.2909 91.4112H63.3925C63.2647 90.7417 63.1683 90.0654 63.1033 89.3823H69.8739C69.9675 90.0672 70.1068 90.745 70.2909 91.4112Z" fill="#6C63FF"/>
<path d="M86.9865 90.5095C86.9864 90.8123 86.9564 91.1143 86.8968 91.4112H78.1085C77.9735 90.7396 77.9911 90.0461 78.16 89.3823H86.8452C86.9391 89.7506 86.9865 90.1293 86.9865 90.5095Z" fill="#6C63FF"/>
<path d="M115.082 89.3823L113.064 91.4112H103.554L105.572 89.3823H115.082Z" fill="#6C63FF"/>
<path d="M79.911 102.006H68.5108C67.9493 101.361 67.426 100.684 66.9437 99.9773H76.1894C77.3325 100.82 78.5845 101.503 79.911 102.006Z" fill="#6C63FF"/>
<path d="M104.545 99.9773L102.527 102.006H91.0488C92.3753 101.503 93.6273 100.82 94.7704 99.9773H104.545Z" fill="#6C63FF"/>
<path d="M70.7536 38.263C69.0395 35.3508 65.6485 35.2151 65.6485 35.2151C65.6485 35.2151 62.344 34.7902 60.2243 39.2255C58.2485 43.3595 55.5217 47.351 59.7853 48.3187L60.5554 45.9085L61.0324 48.4982C61.6394 48.5421 62.2484 48.5525 62.8566 48.5295C67.4226 48.3813 71.771 48.5729 71.631 46.9254C71.4449 44.7352 72.4028 41.065 70.7536 38.263Z" fill="#2F2E41"/>
<path d="M58.402 102.57L58.6262 108.431H62.6616L62.4374 102.119L58.402 102.57Z" fill="#FBBEBE"/>
<path d="M69.3874 61.0911L68.9794 62.4549L63.6929 80.1127L63.11 82.0559L63.5584 102.795L57.9536 103.472C57.9536 103.472 57.79 101.294 57.5501 98.0794C57.0681 91.7133 56.2789 81.2737 55.8216 75.5929C55.6534 73.4919 55.5324 72.0424 55.4875 71.6862C55.2633 69.8828 58.1778 60.8657 58.1778 60.8657L64.0068 60.4148L69.3874 61.0911Z" fill="#2F2E41"/>
<path d="M59.7471 107.755C59.7471 107.755 58.1778 105.951 57.9536 107.304C57.7294 108.656 55.0391 113.841 55.0391 113.841C55.0391 113.841 47.1924 119.026 53.9181 119.477C53.9181 119.477 57.281 119.026 58.402 117.223C58.402 117.223 60.1955 116.096 60.6439 116.096C61.0923 116.096 63.7826 115.194 63.3342 113.841C62.8858 112.489 63.11 107.529 63.11 107.529L59.7471 107.755Z" fill="#2F2E41"/>
<path d="M59.5229 97.1596L61.5407 100.992L64.6794 99.4138L62.6616 94.9053L59.5229 97.1596Z" fill="#FBBEBE"/>
<path opacity="0.2" d="M57.9537 86.1136C57.9537 86.1136 56.2812 82.4391 55.8239 76.7583C59.0702 73.1109 62.998 69.0938 62.998 69.0938L67.706 68.8683L69.1633 68.7556C69.504 72.1821 66.6209 76.596 63.693 80.1127C61.9137 82.2382 59.9964 84.2429 57.9537 86.1136Z" fill="black"/>
<path d="M63.7826 68.9811C63.7826 68.9811 49.4343 81.605 51.452 86.7899C53.4698 91.9748 59.0746 98.2868 59.0746 98.2868L63.4047 95.688L59.2988 86.1136C59.2988 86.1136 61.0201 84.5787 63.1154 82.3044C66.5251 78.6034 70.9249 72.9444 70.5084 68.7556L70.2842 61.0911L66.4729 61.5419L63.7826 68.9811Z" fill="#2F2E41"/>
<path d="M62.4374 100.09C62.4374 100.09 60.868 100.09 61.0922 101.443C61.3164 102.795 61.7648 105.05 61.7648 105.05C61.7648 105.05 59.9713 115.645 64.2309 113.165C68.4906 110.685 67.3696 104.148 67.3696 104.148C67.3696 104.148 68.939 100.09 66.9212 99.6393C64.9035 99.1885 64.2309 98.7376 64.0067 98.963C63.7825 99.1885 62.4374 100.09 62.4374 100.09Z" fill="#2F2E41"/>
<path d="M65.5761 44.8603C67.8048 44.8603 69.6116 43.0436 69.6116 40.8026C69.6116 38.5616 67.8048 36.7449 65.5761 36.7449C63.3474 36.7449 61.5406 38.5616 61.5406 40.8026C61.5406 43.0436 63.3474 44.8603 65.5761 44.8603Z" fill="#FBBEBE"/>
<path d="M64.0068 42.3806C64.0068 42.3806 65.8003 47.1146 65.1277 47.34C64.4551 47.5655 63.11 48.6926 63.11 48.6926L65.3519 50.7215L71.1809 47.5655C71.1809 47.5655 68.4906 43.9586 68.7148 42.3806H64.0068Z" fill="#FBBEBE"/>
<path d="M71.1809 46.6636C71.1809 46.6636 66.4898 48.9889 64.7999 47.4881C64.7999 47.4881 61.989 47.3399 61.5407 48.9179C61.0923 50.4959 61.989 51.8484 60.8681 52.2993C59.7471 52.7501 58.9625 53.99 59.635 56.0189C60.3076 58.0477 60.1955 58.3858 59.2987 59.0621C58.402 59.7384 57.5052 61.091 57.5052 61.5418C57.5052 61.9927 56.6084 61.9927 57.0568 62.4436C57.5052 62.8944 56.6084 62.4436 57.5052 62.8944C58.402 63.3453 60.8681 59.2876 62.6616 61.3164C64.4551 63.3453 70.0599 66.7267 70.5083 64.6978C70.9567 62.669 72.3019 57.7096 72.3019 57.7096C72.3019 57.7096 77.0099 48.9179 75.6647 48.0161C74.3196 47.1144 71.1809 46.6636 71.1809 46.6636Z" fill="#CFCCE0"/>
<path d="M70.5083 62.4437C70.5083 62.4437 68.0422 61.9928 67.3697 63.5708C66.6971 65.1488 62.8858 68.7556 65.3519 68.9811C67.818 69.2065 69.6116 65.1488 69.6116 65.1488L72.0777 64.6979L70.5083 62.4437Z" fill="#FBBEBE"/>
<path d="M72.9744 48.0161L75.9064 48.1803C75.9064 48.1803 77.2341 49.5941 77.4583 50.9467C77.6825 52.2993 81.9421 62.4435 79.2518 63.5707C76.5615 64.6978 70.7325 65.3741 70.7325 65.3741L70.0599 62.2181L73.8712 60.8655L71.1809 55.2298L72.9744 48.0161Z" fill="#CFCCE0"/>
<path opacity="0.2" d="M59.635 86.2264L63.3227 95.4967L58.9624 86.2264L62.7737 82.1687L59.635 86.2264Z" fill="black"/>
<path opacity="0.2" d="M57.4252 96.4307L58.9624 98.3996H57.8415L57.4252 96.4307Z" fill="black"/>
<path d="M66.0635 37.6953C67.4177 37.6953 68.5154 36.5915 68.5154 35.2299C68.5154 33.8682 67.4177 32.7644 66.0635 32.7644C64.7093 32.7644 63.6116 33.8682 63.6116 35.2299C63.6116 36.5915 64.7093 37.6953 66.0635 37.6953Z" fill="#2F2E41"/>
<path d="M63.3535 34.5809C63.3536 33.972 63.5777 33.3847 63.9828 32.932C64.3878 32.4794 64.9451 32.1935 65.5473 32.1293C65.4616 32.1202 65.3755 32.1156 65.2892 32.1155C64.9671 32.1152 64.648 32.1787 64.3502 32.3025C64.0525 32.4262 63.7819 32.6078 63.5539 32.8368C63.326 33.0657 63.1452 33.3376 63.0218 33.6369C62.8985 33.9362 62.835 34.257 62.835 34.5809C62.835 34.9049 62.8985 35.2257 63.0218 35.525C63.1452 35.8243 63.326 36.0962 63.5539 36.3251C63.7819 36.5541 64.0525 36.7357 64.3502 36.8594C64.648 36.9832 64.9671 37.0467 65.2892 37.0464C65.3755 37.0463 65.4616 37.0417 65.5473 37.0325C64.9451 36.9684 64.3878 36.6825 63.9828 36.2299C63.5777 35.7772 63.3536 35.1899 63.3535 34.5809Z" fill="#2F2E41"/>
<path d="M69.9958 37.9822L66.6455 36.2178L62.0191 36.9396L61.0618 41.1905L63.4447 41.0983L64.1103 39.5365V41.0726L65.2098 41.03L65.8478 38.5437L66.2467 41.1905L70.1552 41.1102L69.9958 37.9822Z" fill="#2F2E41"/>
</svg>
